<?xml version="1.0" encoding="utf-8"?>
<!-- Generator: Adobe Illustrator 16.0.0, SVG Export Plug-In . SVG Version: 6.00 Build 0)  -->
<!DOCTYPE svg PUBLIC "-//W3C//DTD SVG 1.1//EN" "http://www.w3.org/Graphics/SVG/1.1/DTD/svg11.dtd">
<svg version="1.1" id="Layer_1" xmlns="http://www.w3.org/2000/svg" xmlns:xlink="http://www.w3.org/1999/xlink" x="0px" y="0px"
	 width="512px" height="512px" viewBox="0 0 512 512" enable-background="new 0 0 512 512" xml:space="preserve">
<path d="M422,11.65H110c-10.77,0-19.5,8.73-19.5,19.5V466c0,10.77,8.73,19.5,19.5,19.5h312c10.771,0,19.5-8.73,19.5-19.5V31.15
	C441.5,20.381,432.771,11.65,422,11.65z M270.5,476.5c-9.941,0-18-8.059-18-18s8.059-18,18-18s18,8.059,18,18
	S280.442,476.5,270.5,476.5z M405.5,425.65h-279v-378h279V425.65z"/>
</svg>
